<svg width="20" height="24" viewBox="0 0 20 24" fill="none" xmlns="http://www.w3.org/2000/svg">
<path fill-rule="evenodd" clip-rule="evenodd" d="M3.17995 0.627815C3.36698 0.359806 3.67318 0.200104 4 0.200104H16C16.3268 0.200104 16.633 0.359806 16.8201 0.627815L19.8201 4.92661C19.9372 5.09447 20 5.29422 20 5.4989V20.5447C20 21.3577 19.7002 22.1505 19.1463 22.7458C18.5902 23.3434 17.8198 23.6941 17 23.6941H3C2.18015 23.6941 1.40982 23.3434 0.853694 22.7458C0.29983 22.1505 0 21.3577 0 20.5447V5.4989C0 5.29422 0.0628098 5.09447 0.179948 4.92661L3.17995 0.627815ZM4.52157 2.2001L2 5.81334V20.5447C2 20.8719 2.1216 21.1724 2.31788 21.3833C2.5119 21.5919 2.75898 21.6941 3 21.6941H17C17.241 21.6941 17.4881 21.5919 17.6821 21.3833C17.8784 21.1724 18 20.8719 18 20.5447V5.81334L15.4784 2.2001H4.52157Z" fill="black"/>
<path fill-rule="evenodd" clip-rule="evenodd" d="M0 5.4989C0 4.94662 0.447715 4.4989 1 4.4989H19C19.5523 4.4989 20 4.94662 20 5.4989C20 6.05119 19.5523 6.4989 19 6.4989H1C0.447715 6.4989 0 6.05119 0 5.4989Z" fill="black"/>
<path fill-rule="evenodd" clip-rule="evenodd" d="M6 8.7977C6.55228 8.7977 7 9.24541 7 9.7977C7 10.6949 7.33231 11.5422 7.90366 12.1562C8.47275 12.7678 9.22855 13.0965 10 13.0965C10.7715 13.0965 11.5272 12.7678 12.0963 12.1562C12.6677 11.5422 13 10.6949 13 9.7977C13 9.24541 13.4477 8.7977 14 8.7977C14.5523 8.7977 15 9.24541 15 9.7977C15 11.1807 14.4895 12.5203 13.5605 13.5186C12.6293 14.5194 11.3503 15.0965 10 15.0965C8.64972 15.0965 7.37068 14.5194 6.43948 13.5186C5.51054 12.5203 5 11.1807 5 9.7977C5 9.24541 5.44772 8.7977 6 8.7977Z" fill="black"/>
</svg>
