<svg width="48" height="48" viewBox="0 0 48 48" fill="none" xmlns="http://www.w3.org/2000/svg">
<path fill-rule="evenodd" clip-rule="evenodd" d="M38 2H10C5.58172 2 2 5.58172 2 10V38C2 42.4183 5.58172 46 10 46H38C42.4183 46 46 42.4183 46 38V10C46 5.58172 42.4183 2 38 2ZM10 0C4.47715 0 0 4.47715 0 10V38C0 43.5228 4.47715 48 10 48H38C43.5228 48 48 43.5229 48 38V10C48 4.47715 43.5229 0 38 0H10Z" fill="#282A30"/>
<path fill-rule="evenodd" clip-rule="evenodd" d="M19.2672 30.6804C18.8914 30.2757 18.9148 29.643 19.3195 29.2672L25.5304 23.5L19.3195 17.7328C18.9148 17.357 18.8914 16.7243 19.2672 16.3195C19.643 15.9148 20.2757 15.8914 20.6804 16.2672L28.4696 23.5L20.6804 30.7328C20.2757 31.1086 19.643 31.0852 19.2672 30.6804Z" fill="#282A30"/>
</svg>
