<svg width="48" height="48" viewBox="0 0 48 48" fill="none" xmlns="http://www.w3.org/2000/svg">
<path fill-rule="evenodd" clip-rule="evenodd" d="M38 2H10C5.58172 2 2 5.58172 2 10V38C2 42.4183 5.58172 46 10 46H38C42.4183 46 46 42.4183 46 38V10C46 5.58172 42.4183 2 38 2ZM10 0C4.47715 0 0 4.47715 0 10V38C0 43.5228 4.47715 48 10 48H38C43.5228 48 48 43.5229 48 38V10C48 4.47715 43.5229 0 38 0H10Z" fill="#282A30"/>
<path fill-rule="evenodd" clip-rule="evenodd" d="M28.7328 17.3196C29.1086 17.7243 29.0852 18.357 28.6805 18.7328L22.4696 24.5L28.6805 30.2672C29.0852 30.643 29.1086 31.2757 28.7328 31.6805C28.357 32.0852 27.7243 32.1086 27.3196 31.7328L19.5304 24.5L27.3196 17.2672C27.7243 16.8914 28.357 16.9148 28.7328 17.3196Z" fill="#282A30"/>
</svg>
